<svg width="283" height="174" viewBox="0 0 283 174" fill="none" xmlns="http://www.w3.org/2000/svg">
<path d="M8.70581 20.467V64.7957C13.0987 69.0888 19.019 72.6031 26.1475 75.2489V53.1844H53.2234V38.6478H26.1475V24.86H54.0521V9.07538H22.0142C16.7028 12.1604 12.2201 15.9843 8.71579 20.467H8.70581Z" fill="#002F6C"/>
<path d="M58.2053 80.8499C60.0224 80.8998 61.8494 80.9197 63.7164 80.8998C67.9195 80.8498 71.8931 80.3606 75.647 79.5919V27.2761H58.2053V80.8499Z" fill="#002F6C"/>
<path d="M75.647 9.08539H58.2053V23.0329H75.647V9.08539Z" fill="#002F6C"/>
<path d="M129.25 59.9136H112.307V66.9323C116.76 65.844 121.103 65.5046 125.566 66.513C126.984 66.8324 128.401 67.1819 129.809 67.5513C129.459 66.9922 129.25 66.3332 129.25 65.5645V59.9136Z" fill="#002F6C"/>
<path d="M188.464 40.9741V26.4375H178.5V18.5601C175.904 17.7315 173.148 17.0026 170.213 16.3836C167.677 15.8545 164.882 15.2854 161.897 14.6964V26.4375H154.419V29.223C151.723 22.354 142.708 19.7083 134.072 19.7083C126.155 19.7083 117.918 21.9247 114.524 27.5856V22.2043C107.635 22.2841 101.814 25.7785 98.9091 33.9953V23.0329H82.2961V77.9146C87.7872 76.2773 92.839 74.1906 97.5713 72.2238C98.0206 72.0341 98.4599 71.8544 98.9091 71.6747V61.4012C98.9091 44.0491 108.643 39.8559 112.906 39.0072C113.046 44.738 114.524 50.0894 124.358 53.5938C136.318 57.9967 138.804 58.8253 138.804 62.8089V65.5445C138.804 67.4714 137.756 68.7294 136.199 69.2785C137.237 69.578 138.265 69.8776 139.294 70.1671C144.425 71.6547 149.617 73.1623 154.988 74.2705C155.517 72.9326 155.837 71.445 155.837 69.7777V62.7989C155.837 53.414 155.757 49.1809 138.894 44.2787C131.836 42.0324 129.509 40.7944 129.509 37.889V37.4697C129.509 34.8938 131.416 33.8156 134.082 33.8156C136.748 33.8156 138.655 35.2233 138.655 37.7992V40.9541H161.907V66.8624C161.907 70.5465 162.735 73.4119 164.123 75.6682C170.393 76.2673 176.952 76.0975 183.971 74.5401C185.518 74.2006 187.026 73.6615 188.484 72.9925V69.608C186.237 69.608 178.52 69.3584 178.52 63.4579V40.9541H188.484L188.464 40.9741Z" fill="#002F6C"/>
<path d="M123.809 94.6876L114.554 140.494L106.547 99.4699C97.3418 103.024 89.9937 107.826 85.1117 113.627C84.3928 114.486 83.7439 115.364 83.1349 116.253V149.08C86.8289 155.949 92.3699 161.54 99.4184 165.663V126.656L108.294 166.542H120.913L129.3 126.656V166.542H145.583V93.3698H132.724C129.669 93.7192 126.704 94.1585 123.829 94.6976L123.809 94.6876Z" fill="#00A3D2"/>
<path d="M256.473 132.736V135.991C256.473 138.837 254.117 140.224 251.262 140.224C248.406 140.224 245.97 138.837 245.97 135.991V127.445H272.827V107.417C272.827 96.3449 262.164 91.7124 251.262 91.7124C242.536 91.7124 234.09 94.6477 230.965 101.397H214.661L209.37 137.289L203.479 101.706C202.95 101.876 202.411 102.066 201.882 102.225C196.99 103.743 192.118 103.563 187.006 102.555L189.502 113.437C185.588 108.326 177.412 105.989 170.173 105.989C160.16 105.989 148.688 110.382 148.688 120.316V154.342C148.688 164.276 160.16 168.669 170.173 168.669C170.723 168.669 171.272 168.649 171.831 168.629C175.365 167.87 179.039 167.051 182.803 166.183C187.965 163.916 191.818 160.042 191.818 154.352V123.561L200.404 160.911H204.777C209.629 159.703 214.441 158.465 219.124 157.247L229.687 109.294V138.767C229.687 145.266 233.461 149.539 238.792 151.965C243.025 150.787 246.919 149.679 250.333 148.681C259.958 145.845 267.655 141.982 273.146 137.309V132.746H256.463L256.473 132.736ZM245.97 109.943C245.97 107.098 248.416 105.55 251.262 105.55C254.107 105.55 256.473 107.098 256.473 109.943V114.416H245.97V109.943ZM175.395 150.608C175.395 153.134 172.709 154.431 170.183 154.431C167.658 154.431 164.972 153.134 164.972 150.608V124.07C164.972 121.544 167.658 120.246 170.183 120.246C172.709 120.246 175.395 121.554 175.395 124.07V150.608Z" fill="#00A3D2"/>
</svg>
